<svg xmlns="http://www.w3.org/2000/svg" viewBox="0 0 137.1 112.66"><defs><style>.cls-1,.cls-2{fill:#1d1d1b;}.cls-2{font-size:9px;font-family:Futura-Medium, Futura;font-weight:500;letter-spacing:-0.02em;}.cls-3{letter-spacing:-0.05em;}.cls-4{letter-spacing:-0.08em;}.cls-5{letter-spacing:-0.09em;}.cls-6{letter-spacing:-0.04em;}.cls-7{letter-spacing:-0.02em;}</style></defs><g id="Capa_2" data-name="Capa 2"><g id="Capa_1-2" data-name="Capa 1"><path class="cls-1" d="M28.41,41.43V0L56.7,29.6v-27h5.86V43.79L34.27,14.27V41.43Z"/><path class="cls-1" d="M68,24.25a20.12,20.12,0,0,1,6.36-14.9A20.93,20.93,0,0,1,89.6,3.12,20.54,20.54,0,0,1,104.65,9.4,20.53,20.53,0,0,1,111,24.49a20.22,20.22,0,0,1-6.33,15A21.7,21.7,0,0,1,75,40.21,20.2,20.2,0,0,1,68,24.25Zm6.25.08a14.86,14.86,0,0,0,4.58,11.2,15.15,15.15,0,0,0,21.41-.08,15.12,15.12,0,0,0,4.45-11,15.07,15.07,0,0,0-4.39-11,15.32,15.32,0,0,0-21.63,0A14.83,14.83,0,0,0,74.27,24.33Z"/><path class="cls-1" d="M32.4,49.31v7.34Q27,52.16,21.28,52.16a14.15,14.15,0,0,0-10.67,4.55A15.35,15.35,0,0,0,6.25,67.77a15,15,0,0,0,4.36,10.91,14.43,14.43,0,0,0,10.7,4.44,13.13,13.13,0,0,0,5.56-1.06,15.55,15.55,0,0,0,2.65-1.44,31.25,31.25,0,0,0,2.88-2.18v7.48a22.4,22.4,0,0,1-11.17,3,20.6,20.6,0,0,1-15-6.14,20.39,20.39,0,0,1-6.2-15,21.11,21.11,0,0,1,5.19-14,20.66,20.66,0,0,1,16.52-7.52A21,21,0,0,1,32.4,49.31Z"/><path class="cls-1" d="M36.66,67.46A20.13,20.13,0,0,1,43,52.56a20.94,20.94,0,0,1,15.22-6.23A21.48,21.48,0,0,1,79.59,67.69a20.22,20.22,0,0,1-6.33,15,21.72,21.72,0,0,1-29.63.69Q36.65,77.33,36.66,67.46Zm6.25.07A15.3,15.3,0,0,0,58,83.12,14.79,14.79,0,0,0,68.9,78.65a15.11,15.11,0,0,0,4.44-11,15,15,0,0,0-4.39-11,14.49,14.49,0,0,0-10.8-4.47,14.65,14.65,0,0,0-10.83,4.47A14.82,14.82,0,0,0,42.91,67.53Zm18-10.18V77.88H55.31V57.35Z"/><path class="cls-1" d="M92.33,49.62V88.18h-6.2V49.62Z"/><path class="cls-1" d="M101,88.18V44.31l30,31.34V47.1h6.2V90.68L107.15,59.42V88.18Z"/><text class="cls-2" transform="translate(16.12 110.06)">NEW <tspan class="cls-3" x="24.29" y="0">G</tspan><tspan x="31.38" y="0">AMES, OLD </tspan><tspan class="cls-4" x="82.14" y="0">W</tspan><tspan class="cls-5" x="90.93" y="0">A</tspan><tspan class="cls-6" x="96.82" y="0">Y</tspan><tspan class="cls-7" x="101.83" y="0">S</tspan></text></g></g></svg>