<svg width="1214" height="416" viewBox="0 0 1214 416" fill="none" xmlns="http://www.w3.org/2000/svg">
<path d="M251 368.501V378.921C251 393.309 257.456 406.306 267.66 415.037V415.337L0.6875 415.337V368.501L251 368.501Z" fill="black"/>
<path d="M397.848 368.501V378.921C397.848 393.309 391.392 406.305 381.188 415.037V415.337H1213.31V368.501H397.848Z" fill="black"/>
<path d="M578.447 339.217C507.031 339.217 460.023 290.401 460.023 226.217C460.023 161.581 511.551 113.217 578.447 113.217C620.031 113.217 646.699 129.489 663.423 146.213L619.127 197.741C612.347 191.413 599.691 180.565 578.899 180.565C549.971 180.565 532.343 202.261 532.343 226.217C532.343 252.885 552.683 271.869 578.899 270.965C596.527 270.513 610.087 264.637 623.195 251.981L668.847 301.249C649.411 322.493 620.031 339.217 578.447 339.217Z" fill="black"/>
<path d="M783.217 339.217C719.033 339.217 666.602 293.113 666.602 227.121C666.602 159.321 719.034 113.217 783.669 113.217C848.305 113.217 900.285 159.773 900.285 227.121C900.285 292.661 848.305 339.217 783.217 339.217ZM783.217 272.321C810.789 272.321 829.773 252.433 829.773 227.121C829.773 200.001 810.337 180.113 783.217 180.113C756.097 180.113 737.114 200.001 737.114 227.121C737.114 252.885 756.549 272.321 783.217 272.321Z" fill="black"/>
<path d="M957.612 86.0973C933.204 86.0973 913.768 68.0173 913.768 42.7053C913.768 19.2013 933.204 0.669312 957.612 0.669312C984.28 0.669312 1001.91 19.2013 1001.91 42.7053C1001.91 68.0173 984.28 86.0973 957.612 86.0973ZM992.868 333.793H920.548V118.641H992.868V333.793Z" fill="black"/>
<path d="M1140.87 113.217C1188.78 113.217 1213.19 148.473 1213.19 189.153V333.793H1140.87V202.713C1140.87 188.249 1132.28 178.757 1118.72 178.757C1111.04 178.757 1102 183.277 1097.48 192.317V333.793H1025.16V118.641H1097.48V128.585C1107.42 119.545 1124.6 113.217 1140.87 113.217Z" fill="black"/>
<path d="M957.612 86.0973C933.204 86.0973 913.768 68.0173 913.768 42.7053C913.768 19.2013 933.204 0.669312 957.612 0.669312C984.28 0.669312 1001.91 19.2013 1001.91 42.7053C1001.91 68.0173 984.28 86.0973 957.612 86.0973ZM992.868 333.793H920.548V118.641H992.868V333.793Z" fill="black"/>
<path d="M116.368 113.217C164.28 113.217 188.688 148.473 188.688 189.153V333.793H116.368V202.713C116.368 188.249 107.78 178.757 94.2202 178.757C86.5362 178.757 77.4963 183.277 72.9763 192.317V333.793H0.65625V118.641H72.9763V128.585C82.9203 119.545 100.096 113.217 116.368 113.217Z" fill="black"/>
<path d="M324.154 339.217C259.97 339.217 207.538 293.113 207.538 227.121C207.538 159.321 259.97 113.217 324.606 113.217C389.242 113.217 441.222 159.773 441.222 227.121C441.222 292.661 389.242 339.217 324.154 339.217ZM324.154 272.321C351.726 272.321 370.71 252.433 370.71 227.121C370.71 200.001 351.274 180.113 324.154 180.113C297.034 180.113 278.05 200.001 278.05 227.121C278.05 252.885 297.486 272.321 324.154 272.321Z" fill="black"/>
<path d="M288.446 378.921V344.74C288.446 344.74 300.735 349.684 324.606 349.684C348.477 349.684 360.766 344.74 360.766 344.74V378.921C360.766 398.91 344.631 415.337 324.641 415.337C304.651 415.337 288.446 398.91 288.446 378.921Z" fill="black"/>
</svg>
