<svg width="1214" height="576" viewBox="0 0 1214 576" fill="none" xmlns="http://www.w3.org/2000/svg">
<path d="M251.031 368.358V378.778C251.031 393.166 257.487 406.162 267.691 414.894V415.194L0.71875 415.194V368.358L251.031 368.358Z" fill="black"/>
<path d="M397.879 368.358V378.778C397.879 393.166 391.423 406.162 381.219 414.894V415.194H1213.34V368.358H397.879Z" fill="black"/>
<path d="M578.479 339.074C507.063 339.074 460.055 290.258 460.055 226.074C460.055 161.438 511.583 113.074 578.479 113.074C620.063 113.074 646.731 129.346 663.455 146.07L619.159 197.598C612.379 191.27 599.723 180.422 578.931 180.422C550.003 180.422 532.375 202.118 532.375 226.074C532.375 252.742 552.715 271.726 578.931 270.822C596.559 270.37 610.119 264.494 623.227 251.838L668.879 301.106C649.443 322.35 620.063 339.074 578.479 339.074Z" fill="black"/>
<path d="M783.249 339.074C719.065 339.074 666.633 292.97 666.633 226.978C666.633 159.178 719.065 113.074 783.701 113.074C848.337 113.074 900.317 159.63 900.317 226.978C900.317 292.518 848.337 339.074 783.249 339.074ZM783.249 272.178C810.821 272.178 829.805 252.29 829.805 226.978C829.805 199.858 810.369 179.97 783.249 179.97C756.129 179.97 737.145 199.858 737.145 226.978C737.145 252.742 756.581 272.178 783.249 272.178Z" fill="black"/>
<path d="M957.643 85.9542C933.235 85.9542 913.799 67.8742 913.799 42.5622C913.799 19.0582 933.235 0.526245 957.643 0.526245C984.311 0.526245 1001.94 19.0582 1001.94 42.5622C1001.94 67.8742 984.311 85.9542 957.643 85.9542ZM992.899 333.65H920.579V118.498H992.899V333.65Z" fill="black"/>
<path d="M1140.9 113.074C1188.82 113.074 1213.22 148.33 1213.22 189.01V333.65H1140.9V202.57C1140.9 188.106 1132.32 178.614 1118.76 178.614C1111.07 178.614 1102.03 183.134 1097.51 192.174V333.65H1025.19V118.498H1097.51V128.442C1107.46 119.402 1124.63 113.074 1140.9 113.074Z" fill="black"/>
<path d="M957.643 85.9542C933.235 85.9542 913.799 67.8742 913.799 42.5622C913.799 19.0582 933.235 0.526245 957.643 0.526245C984.311 0.526245 1001.94 19.0582 1001.94 42.5622C1001.94 67.8742 984.311 85.9542 957.643 85.9542ZM992.899 333.65H920.579V118.498H992.899V333.65Z" fill="black"/>
<path d="M116.399 113.074C164.311 113.074 188.719 148.33 188.719 189.01V333.65H116.399V202.57C116.399 188.106 107.811 178.614 94.2515 178.614C86.5675 178.614 77.5275 183.134 73.0075 192.174V333.65H0.6875V118.498H73.0075V128.442C82.9515 119.402 100.127 113.074 116.399 113.074Z" fill="black"/>
<path d="M324.185 339.074C260.001 339.074 207.569 292.97 207.569 226.978C207.569 159.178 260.001 113.074 324.637 113.074C389.273 113.074 441.253 159.63 441.253 226.978C441.253 292.518 389.273 339.074 324.185 339.074ZM324.185 272.178C351.757 272.178 370.741 252.29 370.741 226.978C370.741 199.858 351.305 179.97 324.185 179.97C297.065 179.97 278.081 199.858 278.081 226.978C278.081 252.742 297.517 272.178 324.185 272.178Z" fill="black"/>
<path d="M288.477 378.778V344.597C288.477 344.597 300.766 349.541 324.637 349.541C348.508 349.541 360.797 344.597 360.797 344.597V378.778C360.797 398.767 344.662 415.194 324.672 415.194C304.682 415.194 288.477 398.767 288.477 378.778Z" fill="black"/>
<path d="M733.144 492.561V489.535H755.394V573.195H733.5V570.525C727.27 573.729 720.15 575.331 712.496 575.331C688.11 575.331 668.352 556.997 668.352 531.187C668.352 505.733 688.11 487.399 712.496 487.399C720.15 487.399 727.092 489.179 733.144 492.561ZM713.92 554.505C722.464 554.505 729.406 550.233 733.144 545.071V517.837C729.406 512.675 722.286 508.225 713.92 508.225C700.57 508.225 690.78 518.193 690.78 531.187C690.78 544.715 700.57 554.505 713.92 554.505Z" fill="black"/>
<path d="M815.257 489.535H823.445V511.785H811.163C801.373 511.785 795.677 518.193 795.677 528.161V573.195H773.427V489.535H795.499V499.503C797.813 495.053 803.687 489.535 815.257 489.535Z" fill="black"/>
<path d="M876.466 575.331C849.232 575.331 830.186 556.107 830.186 531.365C830.186 506.445 849.944 487.399 876.644 487.399C890.884 487.399 902.454 493.095 909.752 500.037L895.69 516.413C891.952 512.675 885.01 508.759 876.466 508.759C862.76 508.759 853.326 518.905 853.326 531.365C853.326 544.359 863.294 553.971 876.466 553.793C884.476 553.793 891.596 550.767 896.58 545.783L910.998 561.269C902.988 569.457 890.884 575.331 876.466 575.331Z" fill="black"/>
<path d="M981.37 492.561V489.535H1003.62V573.195H981.726V570.525C975.496 573.729 968.376 575.331 960.722 575.331C936.336 575.331 916.578 556.997 916.578 531.187C916.578 505.733 936.336 487.399 960.722 487.399C968.376 487.399 975.318 489.179 981.37 492.561ZM962.146 554.505C970.69 554.505 977.632 550.233 981.37 545.071V517.837C977.632 512.675 970.512 508.225 962.146 508.225C948.796 508.225 939.006 518.193 939.006 531.187C939.006 544.715 948.796 554.505 962.146 554.505Z" fill="black"/>
<path d="M1082.89 492.561V448.595H1105.14V573.195H1083.24V570.525C1077.01 573.729 1069.89 575.331 1062.24 575.331C1037.85 575.331 1018.09 556.997 1018.09 531.187C1018.09 505.733 1037.85 487.399 1062.24 487.399C1069.89 487.399 1076.83 489.179 1082.89 492.561ZM1063.66 554.505C1072.21 554.505 1078.97 550.411 1082.89 545.071V517.837C1079.15 512.319 1072.03 508.225 1063.66 508.225C1050.31 508.225 1040.52 518.193 1040.52 531.187C1040.52 544.715 1050.31 554.505 1063.66 554.505Z" fill="black"/>
<path d="M1207.58 531.721C1207.58 534.213 1207.4 538.129 1207.22 539.553H1141.54C1143.85 549.343 1152.58 555.573 1163.26 555.573C1171.62 555.573 1179.99 551.301 1184.08 545.783L1200.46 557.531C1192.8 568.033 1179.1 575.331 1162.9 575.331C1136.02 575.331 1118.04 556.641 1118.04 531.721C1118.04 505.911 1136.73 487.399 1162.9 487.399C1189.6 487.399 1207.58 506.979 1207.58 531.721ZM1141.54 522.287H1184.08C1182.12 513.209 1173.76 506.623 1162.9 506.623C1152.04 506.623 1144.03 513.387 1141.54 522.287Z" fill="black"/>
</svg>
