<?xml version="1.0" encoding="utf-8"?>
<!-- Generator: Adobe Illustrator 24.1.2, SVG Export Plug-In . SVG Version: 6.00 Build 0)  -->
<svg version="1.1" xmlns="http://www.w3.org/2000/svg" xmlns:xlink="http://www.w3.org/1999/xlink" x="0px" y="0px"
	 viewBox="0 0 512 512" style="enable-background:new 0 0 512 512;" xml:space="preserve">
<style type="text/css">
	.st0{fill:#FFFFFF;stroke:#000000;stroke-miterlimit:10;}
</style>
<g id="Layer_1">
	<g>
		<path d="M437,75C390.8,28.6,326.7,0,256,0C185.4,0,121.3,28.6,75,75C28.6,121.3,0,185.3,0,256s28.6,134.7,75,181
			c46.4,46.4,110.4,75,181,75c70.7,0,134.8-28.6,181-75c46.4-46.4,75-110.3,75-181S483.4,121.3,437,75z"/>
	</g>
	<rect x="97" y="67.9" class="st0" width="320" height="368"/>
</g>
<g id="Capa_2">
	<g id="_x32_8-twitch">
		<g>
			<path d="M220.2,354.2l39.2-28.5h64.8l51-54.9V124.5H155.7v201.2h64.4V354.2z M302,179.4h18.3v73.2H302V179.4z M247.2,179.4h18.3
				v73.2h-18.3V179.4z"/>
			<path d="M359.5,47.9h-209C92.8,47.9,46,94.7,46,152.4v209c0,57.7,46.8,104.5,104.5,104.5h209c57.7,0,104.5-46.8,104.5-104.5v-209
				C464,94.7,417.2,47.9,359.5,47.9z M393.5,284.3l-72.9,78h-54.8l-36.5,36.6h-36.9v-36.6H120v-201l17.9-55.1h255.6V284.3z"/>
		</g>
	</g>
	<g id="Layer_1_1_">
	</g>
</g>
</svg>
